<svg width="93" height="277" viewBox="0 0 93 277" fill="none" xmlns="http://www.w3.org/2000/svg">
<g filter="url(#filter0_f)">
<circle cx="46.5" cy="223.5" r="21.5" fill="#FFDD87"/>
</g>
<g filter="url(#filter1_d)">
<path d="M47.0491 183.99H67.7131C67.8341 181.559 66.1331 177.79 63.5801 177.79H30.5181C27.9651 177.79 26.2631 181.558 26.3851 183.99H47.0491ZM63.4931 179.104C63.8465 179.104 64.192 179.209 64.4859 179.405C64.7797 179.602 65.0088 179.881 65.144 180.207C65.2793 180.534 65.3147 180.893 65.2457 181.24C65.1768 181.586 65.0066 181.905 64.7567 182.155C64.5067 182.405 64.1883 182.575 63.8417 182.644C63.495 182.713 63.1357 182.677 62.8092 182.542C62.4827 182.407 62.2036 182.178 62.0072 181.884C61.8109 181.59 61.7061 181.244 61.7061 180.891C61.7063 180.417 61.8947 179.963 62.2298 179.628C62.5649 179.293 63.0193 179.105 63.4931 179.105V179.104ZM58.7931 179.104C59.1465 179.104 59.492 179.209 59.7859 179.405C60.0797 179.602 60.3088 179.881 60.444 180.207C60.5793 180.534 60.6147 180.893 60.5457 181.24C60.4768 181.586 60.3066 181.905 60.0567 182.155C59.8067 182.405 59.4883 182.575 59.1417 182.644C58.795 182.713 58.4357 182.677 58.1092 182.542C57.7827 182.407 57.5036 182.178 57.3072 181.884C57.1109 181.59 57.0061 181.244 57.0061 180.891C57.0062 180.656 57.0527 180.423 57.143 180.206C57.2333 179.989 57.3656 179.792 57.5323 179.626C57.6989 179.46 57.8967 179.328 58.1143 179.239C58.3318 179.15 58.5649 179.104 58.8001 179.105L58.7931 179.104ZM54.0931 179.104C54.4465 179.104 54.792 179.209 55.0859 179.405C55.3797 179.602 55.6088 179.881 55.744 180.207C55.8793 180.534 55.9147 180.893 55.8457 181.24C55.7768 181.586 55.6066 181.905 55.3567 182.155C55.1068 182.405 54.7883 182.575 54.4417 182.644C54.095 182.713 53.7357 182.677 53.4092 182.542C53.0827 182.407 52.8036 182.178 52.6072 181.884C52.4109 181.59 52.3061 181.244 52.3061 180.891C52.3062 180.656 52.3527 180.423 52.443 180.206C52.5333 179.989 52.6656 179.792 52.8323 179.626C52.999 179.46 53.1967 179.328 53.4143 179.239C53.6318 179.15 53.8649 179.104 54.1001 179.105L54.0931 179.104ZM49.3931 179.104C49.7465 179.104 50.092 179.209 50.3859 179.405C50.6797 179.602 50.9088 179.881 51.044 180.207C51.1793 180.534 51.2147 180.893 51.1457 181.24C51.0768 181.586 50.9066 181.905 50.6567 182.155C50.4067 182.405 50.0883 182.575 49.7417 182.644C49.395 182.713 49.0357 182.677 48.7092 182.542C48.3827 182.407 48.1036 182.178 47.9072 181.884C47.7109 181.59 47.6061 181.244 47.6061 180.891C47.6062 180.656 47.6527 180.423 47.743 180.206C47.8333 179.989 47.9656 179.792 48.1323 179.626C48.299 179.46 48.4967 179.328 48.7143 179.239C48.9318 179.15 49.1649 179.104 49.4001 179.105L49.3931 179.104ZM44.6931 179.104C45.0465 179.104 45.392 179.209 45.6859 179.405C45.9797 179.602 46.2088 179.881 46.344 180.207C46.4793 180.534 46.5147 180.893 46.4457 181.24C46.3768 181.586 46.2066 181.905 45.9567 182.155C45.7067 182.405 45.3883 182.575 45.0417 182.644C44.695 182.713 44.3357 182.677 44.0092 182.542C43.6827 182.407 43.4036 182.178 43.2072 181.884C43.0109 181.59 42.9061 181.244 42.9061 180.891C42.9062 180.656 42.9527 180.423 43.043 180.206C43.1333 179.989 43.2656 179.792 43.4323 179.626C43.599 179.46 43.7967 179.328 44.0143 179.239C44.2318 179.15 44.4649 179.104 44.7001 179.105L44.6931 179.104ZM39.9931 179.104C40.3465 179.104 40.6921 179.208 40.9861 179.405C41.2801 179.601 41.5093 179.88 41.6448 180.206C41.7802 180.533 41.8157 180.892 41.7468 181.239C41.678 181.586 41.5079 181.904 41.258 182.154C41.0081 182.404 40.6897 182.575 40.3431 182.644C39.9964 182.713 39.637 182.677 39.3104 182.542C38.9838 182.407 38.7047 182.178 38.5083 181.884C38.3119 181.59 38.2071 181.245 38.2071 180.891C38.2072 180.656 38.2537 180.423 38.3439 180.206C38.4342 179.989 38.5664 179.792 38.7329 179.626C38.8995 179.46 39.0972 179.329 39.3146 179.239C39.532 179.15 39.765 179.104 40.0001 179.105L39.9931 179.104ZM35.2931 179.104C35.6465 179.104 35.992 179.209 36.2859 179.405C36.5797 179.602 36.8088 179.881 36.944 180.207C37.0793 180.534 37.1147 180.893 37.0457 181.24C36.9768 181.586 36.8066 181.905 36.5567 182.155C36.3067 182.405 35.9883 182.575 35.6417 182.644C35.295 182.713 34.9357 182.677 34.6092 182.542C34.2827 182.407 34.0036 182.178 33.8072 181.884C33.6109 181.59 33.5061 181.244 33.5061 180.891C33.5062 180.656 33.5527 180.423 33.643 180.206C33.7333 179.989 33.8656 179.792 34.0323 179.626C34.1989 179.46 34.3967 179.328 34.6143 179.239C34.8318 179.15 35.0649 179.104 35.3001 179.105L35.2931 179.104ZM30.5931 179.104C30.9465 179.104 31.292 179.209 31.5859 179.405C31.8797 179.602 32.1088 179.881 32.244 180.207C32.3793 180.534 32.4147 180.893 32.3457 181.24C32.2768 181.586 32.1066 181.905 31.8567 182.155C31.6068 182.405 31.2883 182.575 30.9417 182.644C30.595 182.713 30.2357 182.677 29.9092 182.542C29.5827 182.407 29.3036 182.178 29.1072 181.884C28.9109 181.59 28.8061 181.244 28.8061 180.891C28.8062 180.655 28.8529 180.422 28.9435 180.205C29.0341 179.987 29.1669 179.79 29.3341 179.624C29.5013 179.458 29.6996 179.327 29.9177 179.238C30.1359 179.148 30.3695 179.103 30.6051 179.105L30.5931 179.104Z" fill="#FFDD9A"/>
<path d="M46.9881 192.378H68.1381L70.9381 188.732L68.1381 185.085H25.9591L23.1641 188.732L25.9591 192.378H46.9881ZM26.5001 191.285L26.0911 190.751L27.5911 189.251L29.6281 191.288L26.5001 191.285ZM32.0431 191.285L34.0801 189.248L36.1161 191.285H32.0431ZM38.5281 191.285L40.5651 189.248L42.6001 191.285H38.5281ZM45.0131 191.285L47.0501 189.248L49.0871 191.285H45.0131ZM51.4981 191.285L53.5351 189.248L55.5721 191.285H51.4981ZM57.9831 191.285L60.0201 189.248L62.0571 191.285H57.9831ZM67.5991 191.285H64.4681L66.5051 189.248L68.0051 190.748L68.1111 190.61L67.5991 191.285ZM68.1421 186.885L69.5561 188.73L68.4561 190.165L67.0211 188.73L68.4561 187.295L68.1421 186.885ZM67.5991 186.177L68.0081 186.711L66.5081 188.211L64.4711 186.174L67.5991 186.177ZM63.4371 186.177L65.9901 188.73L63.4371 191.283H63.0881L60.5361 188.73L63.0891 186.177H63.4371ZM62.0571 186.177L60.0201 188.214L57.9831 186.177H62.0571ZM56.9571 186.177L59.5091 188.73L56.9571 191.283H56.6001L54.0481 188.73L56.6001 186.179L56.9571 186.177ZM55.5771 186.177L53.5401 188.214L51.5031 186.177H55.5771ZM50.4771 186.177L53.0291 188.73L50.4771 191.283H50.1281L47.5761 188.73L50.1281 186.177H50.4771ZM49.0971 186.177L47.0601 188.214L45.0231 186.177H49.0971ZM43.9971 186.177L46.5491 188.73L43.9971 191.283H43.6481L41.0951 188.73L43.6481 186.177H43.9971ZM42.6171 186.177L40.5801 188.214L38.5431 186.177H42.6171ZM37.5111 186.177L40.0641 188.73L37.5121 191.283H37.1631L34.6101 188.73L37.1631 186.177H37.5111ZM36.1321 186.177L34.0951 188.214L32.0581 186.177H36.1321ZM31.0261 186.177L33.5791 188.73L31.0261 191.283H30.6781L28.1251 188.73L30.6781 186.177H31.0261ZM26.5151 186.177H29.6461L27.6091 188.214L26.1091 186.714L25.7861 187.136L26.5151 186.177ZM24.5581 188.73L25.6581 187.295L27.0941 188.73L25.6581 190.165L25.7701 190.31L24.5581 188.73Z" fill="#FFDD9A"/>
<path d="M39.0769 226.59H55.4999V193.229H39.0769V226.59ZM41.0629 211.153C41.0629 202.465 47.2859 198.926 47.2859 198.926C47.2859 198.926 53.5089 202.465 53.5089 211.153V224.768H41.0629V211.153Z" fill="#FFDD9A"/>
<path d="M37.6609 226.59V193.229H26.3899V226.59H37.6609ZM27.7289 198.926C27.7289 198.926 35.5799 202.465 35.5799 211.153V224.768H27.7289V198.926Z" fill="#FFDD9A"/>
<path d="M68.0071 226.59V193.229H56.7361V226.59H68.0071ZM58.8171 211.153C58.8171 202.465 66.6691 198.926 66.6691 198.926V224.768H58.8171V211.153Z" fill="#FFDD9A"/>
<path d="M36.3521 176.698C36.3521 169.114 42.5411 162.871 45.5031 160.318C45.5671 160.368 45.6291 160.418 45.6971 160.462C43.1331 163.254 37.8111 169.869 37.8111 176.698H56.2871C56.2871 169.869 50.9641 163.254 48.4001 160.462C48.4691 160.418 48.5311 160.368 48.5951 160.318C51.5561 162.871 57.7461 169.118 57.7461 176.698H62.4861C62.4861 176.698 63.8191 166.847 48.9911 159.929C49.2207 159.668 49.3885 159.359 49.4822 159.024C49.5758 158.69 49.5929 158.338 49.5321 157.996C50.9787 157.419 52.1791 156.355 52.9267 154.989C53.6744 153.623 53.9226 152.038 53.6287 150.509C53.3348 148.979 52.5172 147.6 51.3164 146.608C50.1156 145.616 48.6066 145.073 47.0491 145.073C45.4915 145.073 43.9825 145.616 42.7817 146.608C41.5809 147.6 40.7633 148.979 40.4694 150.509C40.1755 152.038 40.4237 153.623 41.1714 154.989C41.919 156.355 43.1194 157.419 44.5661 157.996C44.5052 158.338 44.5223 158.69 44.6159 159.024C44.7096 159.359 44.8775 159.668 45.1071 159.929C30.2791 166.847 31.6071 176.698 31.6071 176.698H36.3521ZM41.8081 151.78C41.8068 150.824 42.0669 149.886 42.5602 149.068C43.0534 148.249 43.7611 147.581 44.6067 147.136C45.4522 146.691 46.4034 146.485 47.3574 146.541C48.3114 146.597 49.2319 146.913 50.0193 147.455C50.8067 147.997 51.431 148.743 51.8247 149.614C52.2183 150.485 52.3665 151.447 52.253 152.396C52.1395 153.344 51.7687 154.244 51.1807 154.998C50.5927 155.751 49.81 156.329 48.9171 156.67C48.6836 156.404 48.3961 156.192 48.0739 156.046C47.7517 155.9 47.4022 155.825 47.0486 155.825C46.6949 155.825 46.3454 155.9 46.0232 156.046C45.701 156.192 45.4136 156.404 45.1801 156.67C44.1896 156.291 43.3373 155.621 42.7353 154.748C42.1333 153.875 41.81 152.84 41.8081 151.78Z" fill="#FFDD9A"/>
<path d="M68.034 227.8H26.1C25.2778 227.8 24.4893 228.127 23.908 228.708C23.3266 229.289 23 230.078 23 230.9C23 231.722 23.3266 232.511 23.908 233.092C24.4893 233.673 25.2778 234 26.1 234H68.036C68.8582 234 69.6467 233.673 70.228 233.092C70.8094 232.511 71.136 231.722 71.136 230.9C71.136 230.078 70.8094 229.289 70.228 228.708C69.6467 228.127 68.8582 227.8 68.036 227.8H68.034Z" fill="#FFDD9A"/>
<path d="M48.976 253.061C48.9136 252.977 48.8451 252.898 48.771 252.825C50.938 250.264 54.714 244.488 54.714 235.313H39.858C39.858 244.488 43.634 250.264 45.801 252.825C45.7269 252.898 45.6583 252.977 45.596 253.061C43.064 250.776 38.577 245.318 38.577 235.313H28.377C28.377 235.313 31.11 251.139 45.177 254.031C45.157 254.142 45.1456 254.254 45.143 254.367C45.1431 254.792 45.2696 255.207 45.5065 255.56C45.7433 255.913 46.0797 256.188 46.473 256.349L44.724 260.429L47.288 268.362L49.852 260.429L48.103 256.349C48.4962 256.188 48.8326 255.913 49.0694 255.56C49.3063 255.207 49.4328 254.792 49.433 254.367C49.4303 254.254 49.4189 254.142 49.399 254.031C63.462 251.139 66.199 235.313 66.199 235.313H56C56 245.318 51.508 250.776 48.976 253.061Z" fill="#FFDD9A"/>
<path d="M48.0709 0H47.0649V145.002H48.0709V0Z" fill="#FFDD9A"/>
<path d="M47.0491 184.49H67.7131C67.8341 182.059 66.1331 178.29 63.5801 178.29H30.5181C27.9651 178.29 26.2631 182.058 26.3851 184.49H47.0491ZM63.4931 179.604C63.8465 179.604 64.1921 179.709 64.486 179.905C64.7799 180.102 65.0089 180.381 65.1441 180.707C65.2794 181.034 65.3147 181.393 65.2456 181.74C65.1766 182.087 65.0063 182.405 64.7563 182.655C64.5063 182.905 64.1878 183.075 63.8411 183.144C63.4944 183.213 63.135 183.177 62.8085 183.042C62.482 182.906 62.203 182.677 62.0067 182.383C61.8105 182.089 61.7059 181.744 61.7061 181.39C61.7066 180.916 61.8951 180.462 62.2302 180.128C62.5652 179.793 63.0195 179.605 63.4931 179.605V179.604ZM58.7931 179.604C59.1466 179.604 59.4924 179.708 59.7865 179.904C60.0807 180.1 60.31 180.379 60.4455 180.706C60.5811 181.033 60.6167 181.392 60.5479 181.739C60.4791 182.086 60.3089 182.404 60.059 182.654C59.8091 182.904 59.4906 183.075 59.1438 183.144C58.797 183.213 58.4376 183.177 58.111 183.042C57.7843 182.907 57.5052 182.677 57.3089 182.383C57.1125 182.089 57.0079 181.744 57.0081 181.39C57.0083 181.155 57.0549 180.923 57.1451 180.706C57.2354 180.489 57.3675 180.292 57.5339 180.126C57.7004 179.96 57.8979 179.829 58.1151 179.739C58.3324 179.65 58.5651 179.604 58.8001 179.605L58.7931 179.604ZM54.0931 179.604C54.4467 179.603 54.7925 179.708 55.0868 179.904C55.3811 180.1 55.6106 180.379 55.7463 180.705C55.882 181.032 55.9177 181.391 55.849 181.738C55.7803 182.085 55.6103 182.404 55.3604 182.654C55.1105 182.904 54.792 183.075 54.4452 183.144C54.0984 183.213 53.7389 183.177 53.4122 183.042C53.0855 182.907 52.8063 182.678 52.6099 182.383C52.4136 182.089 52.3089 181.744 52.3091 181.39C52.3093 181.155 52.3559 180.923 52.446 180.706C52.5362 180.489 52.6683 180.292 52.8346 180.126C53.0009 179.961 53.1983 179.829 53.4154 179.74C53.6326 179.65 53.8652 179.605 54.1001 179.605L54.0931 179.604ZM49.3931 179.604C49.7467 179.603 50.0928 179.707 50.3873 179.903C50.6819 180.099 50.9117 180.377 51.0477 180.704C51.1837 181.03 51.2197 181.39 51.1513 181.737C51.0828 182.084 50.9129 182.403 50.6631 182.653C50.4133 182.904 50.0948 183.074 49.7479 183.143C49.4011 183.213 49.0415 183.177 48.7147 183.042C48.3879 182.907 48.1085 182.678 47.9121 182.384C47.7156 182.09 47.6109 181.744 47.6111 181.39C47.6113 181.155 47.6578 180.923 47.7479 180.706C47.8379 180.49 47.9697 180.293 48.1359 180.127C48.302 179.961 48.4991 179.83 48.7161 179.74C48.933 179.651 49.1654 179.605 49.4001 179.605L49.3931 179.604ZM44.6931 179.604C45.0468 179.603 45.3931 179.706 45.6879 179.902C45.9827 180.097 46.2128 180.376 46.3491 180.703C46.4854 181.029 46.5217 181.389 46.4535 181.736C46.3853 182.083 46.2155 182.402 45.9658 182.652C45.716 182.903 45.3976 183.074 45.0507 183.143C44.7038 183.213 44.3441 183.178 44.0171 183.042C43.6902 182.907 43.4108 182.678 43.2142 182.384C43.0177 182.09 42.9129 181.744 42.9131 181.39C42.9136 180.916 43.1021 180.462 43.4372 180.128C43.7722 179.793 44.2265 179.605 44.7001 179.605L44.6931 179.604ZM39.9931 179.604C40.3469 179.602 40.6933 179.706 40.9884 179.901C41.2835 180.096 41.5139 180.375 41.6505 180.701C41.7871 181.028 41.8238 181.387 41.7557 181.734C41.6877 182.082 41.5181 182.401 41.2685 182.652C41.0188 182.903 40.7004 183.074 40.3534 183.143C40.0064 183.213 39.6466 183.178 39.3196 183.043C38.9926 182.907 38.713 182.678 38.5164 182.384C38.3197 182.09 38.2149 181.744 38.2151 181.39C38.2156 180.917 38.4038 180.463 38.7385 180.128C39.0731 179.794 39.5268 179.606 40.0001 179.605L39.9931 179.604ZM35.2931 179.604C35.6469 179.602 35.9935 179.705 36.2887 179.9C36.5839 180.096 36.8145 180.374 36.9512 180.7C37.088 181.027 37.1248 181.387 37.0569 181.734C36.989 182.081 36.8195 182.401 36.5698 182.651C36.3202 182.902 36.0017 183.073 35.6548 183.143C35.3078 183.213 34.9479 183.178 34.6208 183.043C34.2937 182.908 34.0141 182.678 33.8175 182.384C33.6208 182.09 33.5159 181.744 33.5161 181.39C33.5166 180.917 33.7047 180.463 34.0391 180.129C34.3735 179.794 34.827 179.606 35.3001 179.605L35.2931 179.604ZM30.5931 179.604C30.947 179.602 31.2937 179.704 31.5892 179.899C31.8847 180.094 32.1156 180.373 32.2527 180.699C32.3897 181.025 32.4268 181.385 32.3591 181.733C32.2914 182.08 32.1221 182.4 31.8726 182.651C31.623 182.902 31.3045 183.073 30.9575 183.143C30.6105 183.213 30.2505 183.178 29.9233 183.043C29.5961 182.908 29.3164 182.679 29.1196 182.384C28.9228 182.09 28.8179 181.744 28.8181 181.39C28.8186 180.916 29.0071 180.462 29.3422 180.128C29.6772 179.793 30.1315 179.605 30.6051 179.605L30.5931 179.604Z" fill="#EBC883"/>
<path d="M46.9881 192.878H68.1381L70.9381 189.232L68.1381 185.585H25.9591L23.1641 189.232L25.9591 192.878H46.9881ZM26.5001 191.785L26.0911 191.251L27.5911 189.751L29.6281 191.788L26.5001 191.785ZM32.0431 191.785L34.0801 189.748L36.1161 191.785H32.0431ZM38.5281 191.785L40.5651 189.748L42.6001 191.785H38.5281ZM45.0131 191.785L47.0501 189.748L49.0871 191.785H45.0131ZM51.4981 191.785L53.5351 189.748L55.5721 191.785H51.4981ZM57.9831 191.785L60.0201 189.748L62.0571 191.785H57.9831ZM67.5991 191.785H64.4681L66.5051 189.748L68.0051 191.248L68.1111 191.11L67.5991 191.785ZM68.1421 187.385L69.5561 189.23L68.4561 190.665L67.0211 189.23L68.4561 187.795L68.1421 187.385ZM67.5991 186.677L68.0081 187.211L66.5081 188.711L64.4711 186.674L67.5991 186.677ZM63.4371 186.677L65.9901 189.23L63.4371 191.783H63.0881L60.5361 189.23L63.0891 186.677H63.4371ZM62.0571 186.677L60.0201 188.714L57.9831 186.677H62.0571ZM56.9571 186.677L59.5091 189.23L56.9571 191.783H56.6001L54.0481 189.23L56.6001 186.679L56.9571 186.677ZM55.5771 186.677L53.5401 188.714L51.5031 186.677H55.5771ZM50.4771 186.677L53.0291 189.23L50.4771 191.783H50.1281L47.5761 189.23L50.1281 186.677H50.4771ZM49.0971 186.677L47.0601 188.714L45.0231 186.677H49.0971ZM43.9971 186.677L46.5491 189.23L43.9971 191.783H43.6481L41.0951 189.23L43.6481 186.677H43.9971ZM42.6171 186.677L40.5801 188.714L38.5431 186.677H42.6171ZM37.5111 186.677L40.0641 189.23L37.5121 191.783H37.1631L34.6101 189.23L37.1631 186.677H37.5111ZM36.1321 186.677L34.0951 188.714L32.0581 186.677H36.1321ZM31.0261 186.677L33.5791 189.23L31.0261 191.783H30.6781L28.1251 189.23L30.6781 186.677H31.0261ZM26.5151 186.677H29.6461L27.6091 188.714L26.1091 187.214L25.7861 187.636L26.5151 186.677ZM24.5581 189.23L25.6581 187.795L27.0941 189.23L25.6581 190.665L25.7701 190.81L24.5581 189.23Z" fill="#EBC883"/>
<path d="M39.0769 227.09H55.4999V193.729H39.0769V227.09ZM41.0629 211.653C41.0629 202.965 47.2859 199.426 47.2859 199.426C47.2859 199.426 53.5089 202.965 53.5089 211.653V225.268H41.0629V211.653Z" fill="#EBC883"/>
<path d="M37.6609 227.09V193.729H26.3899V227.09H37.6609ZM27.7289 199.426C27.7289 199.426 35.5799 202.965 35.5799 211.653V225.268H27.7289V199.426Z" fill="#EBC883"/>
<path d="M68.0071 227.09V193.729H56.7361V227.09H68.0071ZM58.8171 211.653C58.8171 202.965 66.6691 199.426 66.6691 199.426V225.268H58.8171V211.653Z" fill="#EBC883"/>
<path d="M36.3521 177.198C36.3521 169.614 42.5411 163.371 45.5031 160.818C45.5671 160.868 45.6291 160.918 45.6971 160.962C43.1331 163.754 37.8111 170.369 37.8111 177.198H56.2871C56.2871 170.369 50.9641 163.754 48.4001 160.962C48.4691 160.918 48.5311 160.868 48.5951 160.818C51.5561 163.371 57.7461 169.618 57.7461 177.198H62.4861C62.4861 177.198 63.8191 167.347 48.9911 160.429C49.2207 160.168 49.3885 159.859 49.4822 159.524C49.5758 159.19 49.5929 158.838 49.5321 158.496C50.9787 157.919 52.1791 156.856 52.9267 155.489C53.6744 154.123 53.9226 152.539 53.6287 151.009C53.3348 149.479 52.5172 148.1 51.3164 147.108C50.1156 146.116 48.6066 145.573 47.0491 145.573C45.4915 145.573 43.9825 146.116 42.7817 147.108C41.5809 148.1 40.7633 149.479 40.4694 151.009C40.1755 152.539 40.4237 154.123 41.1714 155.489C41.919 156.856 43.1194 157.919 44.5661 158.496C44.5052 158.838 44.5223 159.19 44.6159 159.524C44.7096 159.859 44.8775 160.168 45.1071 160.429C30.2791 167.347 31.6071 177.198 31.6071 177.198H36.3521ZM41.8081 152.28C41.8068 151.325 42.0669 150.387 42.5602 149.568C43.0534 148.75 43.7611 148.082 44.6067 147.636C45.4522 147.191 46.4034 146.985 47.3574 147.041C48.3114 147.098 49.2319 147.414 50.0193 147.955C50.8067 148.497 51.431 149.243 51.8247 150.114C52.2183 150.985 52.3665 151.947 52.253 152.896C52.1395 153.845 51.7687 154.745 51.1807 155.498C50.5927 156.251 49.81 156.83 48.9171 157.17C48.6836 156.905 48.3961 156.692 48.0739 156.546C47.7517 156.4 47.4022 156.325 47.0486 156.325C46.6949 156.325 46.3454 156.4 46.0232 156.546C45.701 156.692 45.4136 156.905 45.1801 157.17C44.1896 156.791 43.3373 156.121 42.7353 155.248C42.1333 154.375 41.81 153.341 41.8081 152.28Z" fill="#EBC883"/>
<path d="M68.034 228.3H26.1C25.2778 228.3 24.4893 228.627 23.908 229.208C23.3266 229.789 23 230.578 23 231.4C23 232.222 23.3266 233.011 23.908 233.592C24.4893 234.174 25.2778 234.5 26.1 234.5H68.036C68.8582 234.5 69.6467 234.174 70.228 233.592C70.8094 233.011 71.136 232.222 71.136 231.4C71.136 230.578 70.8094 229.789 70.228 229.208C69.6467 228.627 68.8582 228.3 68.036 228.3H68.034Z" fill="#EBC883"/>
<path d="M48.976 253.561C48.9136 253.478 48.8451 253.399 48.771 253.325C50.938 250.764 54.714 244.988 54.714 235.813H39.858C39.858 244.988 43.634 250.764 45.801 253.325C45.7269 253.399 45.6583 253.478 45.596 253.561C43.064 251.276 38.577 245.818 38.577 235.813H28.377C28.377 235.813 31.11 251.639 45.177 254.531C45.157 254.642 45.1456 254.755 45.143 254.867C45.1431 255.292 45.2696 255.708 45.5065 256.061C45.7433 256.413 46.0797 256.688 46.473 256.849L44.724 260.929L47.288 268.862L49.852 260.929L48.103 256.849C48.4962 256.688 48.8326 256.413 49.0694 256.061C49.3063 255.708 49.4328 255.292 49.433 254.867C49.4303 254.755 49.4189 254.642 49.399 254.531C63.462 251.639 66.199 235.813 66.199 235.813H56C56 245.818 51.508 251.276 48.976 253.561Z" fill="#EBC883"/>
<path d="M48.0709 0.874512H47.0649V145.877H48.0709V0.874512Z" fill="#EBC883"/>
</g>
<defs>
<filter id="filter0_f" x="0.428572" y="177.429" width="92.1429" height="92.1429" filterUnits="userSpaceOnUse" color-interpolation-filters="sRGB">
<feFlood flood-opacity="0" result="BackgroundImageFix"/>
<feBlend mode="normal" in="SourceGraphic" in2="BackgroundImageFix" result="shape"/>
<feGaussianBlur stdDeviation="12.2857" result="effect1_foregroundBlur"/>
</filter>
<filter id="filter1_d" x="19" y="0" width="56.136" height="276.862" filterUnits="userSpaceOnUse" color-interpolation-filters="sRGB">
<feFlood flood-opacity="0" result="BackgroundImageFix"/>
<feColorMatrix in="SourceAlpha" type="matrix" values="0 0 0 0 0 0 0 0 0 0 0 0 0 0 0 0 0 0 127 0"/>
<feOffset dy="4"/>
<feGaussianBlur stdDeviation="2"/>
<feColorMatrix type="matrix" values="0 0 0 0 0 0 0 0 0 0 0 0 0 0 0 0 0 0 0.25 0"/>
<feBlend mode="normal" in2="BackgroundImageFix" result="effect1_dropShadow"/>
<feBlend mode="normal" in="SourceGraphic" in2="effect1_dropShadow" result="shape"/>
</filter>
</defs>
</svg>
